<svg width="383" height="383" viewBox="0 0 383 383" fill="none" xmlns="http://www.w3.org/2000/svg">
<line x1="5" y1="8" x2="5" y2="383" stroke="black" stroke-width="10"/>
<line y1="130" x2="250" y2="130" stroke="black" stroke-width="10"/>
<line x1="128" y1="8" x2="128" y2="383" stroke="black" stroke-width="10"/>
<line x1="126.521" y1="129.45" x2="378.521" y2="379.45" stroke="black" stroke-width="10"/>
<path d="M125 377.5H249C265.153 377.5 281.147 374.293 296.07 368.061C310.993 361.829 324.553 352.696 335.974 341.181C347.396 329.667 356.456 315.997 362.637 300.953C368.819 285.908 372 269.784 372 253.5C372 237.216 368.819 221.092 362.637 206.047C356.456 191.003 347.396 177.333 335.974 165.819C324.553 154.304 310.993 145.171 296.07 138.939C281.147 132.707 265.153 130 249 130" stroke="black" stroke-width="10"/>
<path d="M0 5.5H250C258.273 5.5 266.466 7.10367 274.109 10.2195C281.753 13.3353 288.698 17.9021 294.548 23.6594C300.398 29.4166 305.038 36.2514 308.204 43.7736C311.37 51.2958 313 59.358 313 67.5C313 75.6419 311.37 83.7042 308.204 91.2264C305.038 98.7486 300.398 105.583 294.548 111.341C288.698 117.098 281.753 121.665 274.109 124.781C266.466 127.896 258.273 130 250 130M128 129.5C136.273 129.5 144.466 127.896 152.109 124.781C159.753 121.665 166.698 117.098 172.548 111.341C178.398 105.583 183.038 98.7486 186.204 91.2264C189.37 83.7042 191 75.6419 191 67.5C191 59.358 189.37 51.2958 186.204 43.7736C183.038 36.2514 178.398 29.4166 172.548 23.6594C166.698 17.9021 159.753 13.3353 152.109 10.2195C144.466 7.10367 136.273 5.5 128 5.5" stroke="black" stroke-width="10"/>
</svg>
